# xmcd
#
# Track frame offsets:
#	150
#	17023
#	30127
#	46576
#	63362
#	79217
#	95020
#	111386
#	129333
#	143935
#	162693
#	181716
#	197398
#	214424
#	229390
#	245203
#	260184
#	278829
#	293010
#	307102
#
# Disc length: 4364 seconds
#
# Revision: 0
# Processed by: cddbd v1.5.2PL0 Copyright (c) Steve Scherf et al.
# Submitted via: EasyCDDAExtractor 11.5.0.1
#
DISCID=28110a14
DTITLE=Various Artist - NCT 109
DYEAR=2008
DGENRE=Country
TTITLE0=Randy Travis - Faith In You
TTITLE1=Shooter Jennings - This Ol' Wheel
TTITLE2=Alan Jackson - Good Time
TTITLE3=Kenny Chesney - Better As A Memory
TTITLE4=John Michael Montgomery - Mad Cow Disease
TTITLE5=Joshua Stevens - Rock 'N' Roll And Pensacola
TTITLE6=Mark Chesnutt - When You Love Her Like Crazy
TTITLE7=David Nail - I'm About To Come Alive
TTITLE8=Neal McCoy - Rednecktified
TTITLE9=Jamey Johnson - In Colour
TTITLE10=Brittany Clarke - If That Chair Could Talk
TTITLE11=Laura Bryna - Life Is Good
TTITLE12=The Drew Davis Band - How Do I
TTITLE13=Ashley Gearing - Out Of The Window
TTITLE14=Randy Houser - Wild Wild West
TTITLE15=Shawn Hammonds - Somebody Mama Would Like
TTITLE16=James LeBlanc - I'm Here
TTITLE17=Becky Schlegel - Bound For Tennessee
TTITLE18=Brett Hill - He's Still The Same
TTITLE19=Steve Earle - Copperhead Road
EXTD=
EXTT0=
EXTT1=
EXTT2=
EXTT3=
EXTT4=
EXTT5=
EXTT6=
EXTT7=
EXTT8=
EXTT9=
EXTT10=
EXTT11=
EXTT12=
EXTT13=
EXTT14=
EXTT15=
EXTT16=
EXTT17=
EXTT18=
EXTT19=
PLAYORDER=
